HIERARCHY
ROOT Hips
{
OFFSET -0.1795 -22.3333 2.8219000000000003
	CHANNELS 6 Xposition Yposition Zposition Zrotation Yrotation Xrotation 
	JOINT LeftUpLeg
	{
OFFSET 6.952 -9.140600000000001 -0.6815
		CHANNELS 3 Zrotation Yrotation Xrotation
		JOINT LeftLeg
		{
OFFSET 3.4277 -37.5199 -0.4496
			CHANNELS 3 Zrotation Yrotation Xrotation
			JOINT LeftFoot
			{
OFFSET -1.3596000000000001 -39.7961 -4.3693
				CHANNELS 3 Zrotation Yrotation Xrotation
				JOINT LeftToe
				{
OFFSET 2.6358 -5.5791 11.9288
					CHANNELS 3 Zrotation Yrotation Xrotation
					End Site
					{
OFFSET 0.0 0.0 0.0
					}
				}
			}
		}
	}
	JOINT RightUpLeg
	{
OFFSET -6.7669999999999995 -9.052200000000001 -0.432
		CHANNELS 3 Zrotation Yrotation Xrotation
		JOINT RightLeg
		{
OFFSET -3.8289999999999997 -38.2569 -0.885
			CHANNELS 3 Zrotation Yrotation Xrotation
			JOINT RightFoot
			{
OFFSET 1.5774 -39.8415 -4.2312
				CHANNELS 3 Zrotation Yrotation Xrotation
				JOINT RightToe
				{
OFFSET -2.5372 -4.8144 12.3348
					CHANNELS 3 Zrotation Yrotation Xrotation
					End Site
					{
OFFSET 0.0 0.0 0.0
					}
				}
			}
		}
	}
	JOINT Spine
	{
OFFSET -0.2533 10.8963 -2.6696
		CHANNELS 3 Zrotation Yrotation Xrotation
		JOINT Spine1
		{
OFFSET 0.5487 13.517999999999999 0.1092
			CHANNELS 3 Zrotation Yrotation Xrotation
			JOINT Spine2
			{
OFFSET 0.1457 5.292199999999999 2.5425
				CHANNELS 3 Zrotation Yrotation Xrotation
				JOINT Neck
				{
OFFSET -0.2778 21.387 -4.2857
					CHANNELS 3 Zrotation Yrotation Xrotation
					JOINT Head
					{
OFFSET 0.5152 6.497 5.1349
						CHANNELS 3 Zrotation Yrotation Xrotation
						End Site
						{
OFFSET 0.0 0.0 0.0
						}
					}
				}
				JOINT LeftShoulder
				{
OFFSET 7.8845 12.1749 -3.4090000000000003
					CHANNELS 3 Zrotation Yrotation Xrotation
					JOINT LeftArm
					{
OFFSET 9.0977 3.0469 -0.8867999999999999
						CHANNELS 3 Zrotation Yrotation Xrotation
						JOINT LeftForeArm
						{
OFFSET 25.9612 -1.2772000000000001 -2.7456
							CHANNELS 3 Zrotation Yrotation Xrotation
							JOINT LeftHand
							{
OFFSET 24.9234 0.8986 -0.1171
								CHANNELS 3 Zrotation Yrotation Xrotation
								End Site
								{
OFFSET 0.0 0.0 0.0
								}
							}
						}
					}
				}
				JOINT RightShoulder
				{
OFFSET -8.1759 11.8833 -3.8614999999999995
					CHANNELS 3 Zrotation Yrotation Xrotation
					JOINT RightArm
					{
OFFSET -9.6012 3.2550999999999997 -0.9143
						CHANNELS 3 Zrotation Yrotation Xrotation
						JOINT RightForeArm
						{
OFFSET -25.374200000000002 -1.3329 -2.1401
							CHANNELS 3 Zrotation Yrotation Xrotation
							JOINT RightHand
							{
OFFSET -25.5298 0.7772 -0.5559
								CHANNELS 3 Zrotation Yrotation Xrotation
								End Site
								{
OFFSET 0.0 0.0 0.0
								}
							}
						}
					}
				}
			}
		}
	}
}
MOTION
Frames: 13
Frame Time: 0.050000
0.0 100.1166 0.0 -2.645519 -0.607524 8.288285 1.998009 -0.813466 -10.480156 -1.537325 0.029937 7.063307 1.177439 4.711964 6.080606 0.000000 0.000000 0.000000 1.522026 1.507976 -13.676004 1.541609 0.167310 11.838257 -0.095635 -4.933669 11.000335 0.000000 0.000000 0.000000 -1.508124 -0.063853 3.996751 5.850560 -0.461552 -27.911775 0.500966 0.352999 28.701423 2.701063 0.275387 -29.222849 0.000000 0.000000 0.000000 -21.262427 9.168194 -6.606321 -60.969318 -3.756015 -7.841587 -9.597232 -30.491605 4.554138 0.000000 0.000000 0.000000 14.683753 -2.924092 -2.216444 64.714926 4.018116 -6.758168 -0.339955 29.449939 1.543554 0.000000 0.000000 0.000000
0.0283 100.2349 -0.0005 -3.107546 -0.444279 9.362060 2.717400 -0.870194 -11.968184 -2.009510 0.100598 7.627900 2.103948 5.254851 2.239734 0.000000 0.000000 0.000000 1.306783 1.635189 -14.952041 2.605550 -0.051833 12.083127 -0.774886 -5.932742 9.998680 0.000000 0.000000 0.000000 -1.834920 -0.018316 3.350607 6.227665 -0.520490 -28.009611 0.915064 0.498027 28.199490 3.346433 -0.047440 -28.922287 0.000000 0.000000 0.000000 -22.220274 9.576833 -7.134303 -60.841333 -3.602869 -7.837700 -9.027463 -31.045845 4.459907 0.000000 0.000000 0.000000 15.615802 -3.456807 -2.550026 64.572231 2.868235 -7.287423 -1.048179 30.507968 1.450989 0.000000 0.000000 0.000000
0.0333 100.39309999999999 0.0312 -3.072738 -1.155831 9.640417 3.012597 -0.864827 -12.361139 -2.261396 0.150521 8.133336 2.403163 5.572724 1.381376 0.000000 0.000000 0.000000 1.700326 1.685568 -15.043904 2.023867 0.083459 11.865092 -0.952597 -5.972105 8.741681 0.000000 0.000000 0.000000 -1.310506 -0.040608 2.973087 5.067432 -0.261784 -28.503592 1.156781 0.807213 28.644255 3.912280 -0.368182 -29.196490 0.000000 0.000000 0.000000 -21.669416 9.053207 -6.646837 -60.696339 -3.558371 -7.894764 -9.872502 -31.083224 4.725170 0.000000 0.000000 0.000000 16.019202 -2.867090 -2.304263 64.354822 2.449683 -7.566460 -1.183658 29.413925 1.335523 0.000000 0.000000 0.000000
0.0378 100.3687 0.0603 -3.583977 -1.625209 10.216449 3.413514 -0.865702 -13.060225 -2.392161 0.178315 8.700317 2.486931 5.281836 -0.082137 0.000000 0.000000 0.000000 2.294793 1.768648 -15.260017 1.973138 0.087591 11.168000 -0.907268 -5.899251 8.619304 0.000000 0.000000 0.000000 -1.575302 -0.008601 2.552543 5.915743 -0.397265 -28.796576 1.300197 0.893172 28.754184 4.280600 -0.485592 -30.370858 0.000000 0.000000 0.000000 -22.384682 10.190523 -7.421902 -61.303852 -3.218631 -8.105597 -10.228899 -31.487589 4.942502 0.000000 0.000000 0.000000 16.185670 -2.817950 -2.340533 64.372169 2.319090 -7.655015 -1.134381 29.914270 1.366937 0.000000 0.000000 0.000000
0.034 100.23329999999999 0.0964 -3.805153 -1.993655 10.090464 3.820302 -0.795139 -12.488026 -2.692979 0.243228 8.452293 2.706564 5.819207 0.152973 0.000000 0.000000 0.000000 2.688502 1.735839 -14.717074 1.799335 0.107917 10.409597 -1.293016 -6.660072 8.390367 0.000000 0.000000 0.000000 -1.694541 -0.009537 2.850267 6.323220 -0.545309 -27.953604 1.416610 1.576872 28.073392 4.771080 -0.626563 -30.608238 0.000000 0.000000 0.000000 -22.191432 9.618641 -7.180274 -61.363562 -3.534359 -7.874016 -10.166303 -31.314685 4.827827 0.000000 0.000000 0.000000 16.317553 -2.857086 -2.296684 64.621966 2.742249 -7.341496 -1.479872 29.613642 1.285200 0.000000 0.000000 0.000000
0.0294 100.0546 0.1397 -4.084268 -1.899334 10.271257 4.045006 -0.781748 -12.544372 -2.589133 0.221414 8.691241 2.454760 5.198335 -0.133051 0.000000 0.000000 0.000000 3.135004 1.783608 -14.807915 1.538980 0.156039 10.402263 -1.385052 -6.471648 7.273253 0.000000 0.000000 0.000000 -1.766820 -0.003261 2.815176 6.618022 -0.565741 -28.363632 1.405332 1.313260 28.280606 4.918097 -0.667811 -31.290015 0.000000 0.000000 0.000000 -21.910913 9.905057 -7.241379 -61.585094 -3.673725 -7.837515 -10.631482 -31.135074 4.951693 0.000000 0.000000 0.000000 16.223217 -2.586742 -2.181557 65.137446 3.213041 -7.155834 -1.946376 29.888170 1.188001 0.000000 0.000000 0.000000
0.0263 99.9339 0.18389999999999998 -4.187479 -2.078314 10.203585 4.054784 -0.746112 -11.899338 -2.519559 0.216151 7.885350 2.457950 5.282489 0.112725 0.000000 0.000000 0.000000 3.371857 1.778622 -14.616899 1.297223 0.194415 10.081785 -1.251617 -6.172590 7.175644 0.000000 0.000000 0.000000 -1.724802 -0.006628 2.830163 6.575484 -0.584762 -28.057787 1.483710 1.059440 28.219464 4.869595 -0.695350 -31.363991 0.000000 0.000000 0.000000 -21.870134 9.605377 -6.946360 -61.506123 -4.174316 -7.574630 -10.311370 -30.666344 4.805974 0.000000 0.000000 0.000000 16.076170 -2.094013 -1.989161 65.509430 3.661513 -6.952787 -2.087524 30.270317 1.149099 0.000000 0.000000 0.000000
0.03 99.7569 0.231 -4.240153 -2.065409 10.095811 3.792507 -0.744361 -11.495746 -2.011414 0.128177 7.446944 2.351793 4.859758 -0.502021 0.000000 0.000000 0.000000 3.660572 1.810986 -14.675553 0.839290 0.282569 10.146127 -1.231014 -5.855240 6.411346 0.000000 0.000000 0.000000 -1.904747 0.005883 2.791881 6.959789 -0.665326 -27.990101 1.266850 0.990310 28.329671 5.036117 -0.833338 -30.957050 0.000000 0.000000 0.000000 -21.409799 9.180991 -6.589274 -61.398813 -4.395905 -7.464068 -10.892120 -30.688295 4.968722 0.000000 0.000000 0.000000 16.210899 -1.892723 -1.898460 65.883176 4.489234 -6.534539 -2.016406 30.922675 1.215275 0.000000 0.000000 0.000000
0.0421 99.6107 0.2689 -4.274294 -2.238143 10.002159 3.628928 -0.719318 -10.856254 -1.625814 0.070668 6.816846 2.455606 4.980264 -0.822816 0.000000 0.000000 0.000000 3.655300 1.809566 -14.651890 0.490315 0.346067 10.028299 -0.940365 -5.333803 6.657492 0.000000 0.000000 0.000000 -1.876009 0.000478 2.910935 7.045271 -0.691012 -27.896994 1.432834 0.806533 28.382408 4.813404 -0.760561 -31.054594 0.000000 0.000000 0.000000 -21.530090 8.965023 -6.397222 -61.243591 -4.886659 -7.212578 -11.002773 -30.428428 4.976116 0.000000 0.000000 0.000000 15.989582 -1.315771 -1.634107 66.106059 5.325912 -6.107641 -1.829431 31.811658 1.296671 0.000000 0.000000 0.000000
0.06080000000000001 99.4533 0.2896 -4.251480 -2.294815 9.902675 3.336088 -0.727128 -10.671544 -1.186140 -0.007652 6.995198 2.478622 4.630630 -2.044248 0.000000 0.000000 0.000000 3.742366 1.846284 -14.852906 0.138256 0.426807 10.339919 -0.690761 -4.659777 6.303153 0.000000 0.000000 0.000000 -1.925735 0.006805 2.778980 7.390889 -0.812974 -27.327014 1.220948 0.901565 28.220613 4.958551 -0.843107 -30.818997 0.000000 0.000000 0.000000 -21.609706 8.826559 -6.349834 -61.154175 -4.960288 -7.150447 -11.103427 -30.920456 5.085210 0.000000 0.000000 0.000000 15.872175 -0.591765 -1.234548 66.490109 6.028303 -5.701620 -1.452820 32.936126 1.468974 0.000000 0.000000 0.000000
0.09659999999999999 99.3058 0.2805 -4.215429 -2.212234 9.899993 3.081658 -0.753685 -10.833613 -0.825220 -0.087450 7.766717 2.424554 4.113027 -3.182565 0.000000 0.000000 0.000000 3.621935 1.920641 -15.457202 0.017081 0.484227 11.106864 -0.480176 -4.089588 6.051170 0.000000 0.000000 0.000000 -2.051392 0.011589 2.920568 7.609401 -0.860880 -27.275949 1.318051 0.867684 28.308759 4.794054 -0.735347 -31.008066 0.000000 0.000000 0.000000 -21.740802 8.803874 -6.365999 -61.202177 -4.925207 -7.180360 -11.701302 -31.387742 5.346890 0.000000 0.000000 0.000000 15.726928 -0.402789 -1.113804 66.897569 6.871605 -5.237514 -1.136340 33.631680 1.617981 0.000000 0.000000 0.000000
0.1514 99.1828 0.2406 -4.216515 -2.214614 9.508570 2.820290 -0.770919 -10.877904 -0.379440 -0.192323 8.743689 2.229377 3.273599 -4.223337 0.000000 0.000000 0.000000 3.343563 2.019184 -16.319375 0.028107 0.571875 13.014768 -0.587411 -4.261478 5.899990 0.000000 0.000000 0.000000 -2.149719 0.003887 3.400426 7.917489 -0.961121 -26.924420 1.131514 0.861951 28.372294 4.885125 -0.833619 -30.545513 0.000000 0.000000 0.000000 -22.044825 8.862289 -6.449351 -61.062280 -5.255490 -7.015539 -11.768517 -31.928561 5.479610 0.000000 0.000000 0.000000 15.716087 0.241987 -0.775883 66.545759 7.764661 -4.722382 -1.500407 33.712717 1.516564 0.000000 0.000000 0.000000
0.22769999999999999 99.0109 0.1972 -4.266921 -2.628870 9.336511 2.715173 -0.786794 -11.121219 -0.503189 -0.187374 9.812243 2.277710 3.031364 -5.222189 0.000000 0.000000 0.000000 2.963300 2.159086 -17.561793 0.446537 0.602607 15.446515 -0.694387 -4.470116 5.751116 0.000000 0.000000 0.000000 -2.139258 -0.008514 3.870129 7.875068 -0.974130 -26.715144 1.385455 1.225906 28.542008 4.804238 -0.775072 -30.578138 0.000000 0.000000 0.000000 -22.240426 8.692920 -6.403231 -61.289078 -5.528873 -6.918312 -12.036908 -32.111639 5.600416 0.000000 0.000000 0.000000 15.657132 0.362792 -0.682222 66.517021 8.606289 -4.256623 -1.595584 33.721089 1.508430 0.000000 0.000000 0.000000
